<?xml version="1.0" standalone="no"?>
<!DOCTYPE svg PUBLIC "-//W3C//DTD SVG 20010904//EN"
 "http://www.w3.org/TR/2001/REC-SVG-20010904/DTD/svg10.dtd">
<svg version="1.0" xmlns="http://www.w3.org/2000/svg"
 width="900.000000pt" height="900.000000pt" viewBox="0 0 900.000000 900.000000"
 preserveAspectRatio="xMidYMid meet">

<g transform="translate(0.000000,900.000000) scale(0.100000,-0.100000)"
fill="#000000" stroke="none">
<path d="M4105 8390 c-834 -92 -1574 -416 -2185 -956 -1026 -907 -1499 -2241
-1275 -3594 22 -133 86 -393 130 -530 451 -1398 1653 -2435 3095 -2669 402
-65 860 -66 1255 -1 1073 175 2022 788 2632 1700 270 404 465 866 567 1348 55
260 76 446 83 737 24 1041 -373 2048 -1106 2799 -636 652 -1439 1047 -2356
1161 -207 26 -631 29 -840 5z m795 -165 c1088 -124 2049 -695 2675 -1590 297
-424 523 -965 610 -1460 60 -343 74 -781 35 -1108 -55 -460 -175 -854 -386
-1267 -266 -524 -653 -977 -1132 -1327 l-103 -76 -57 12 c-163 31 -337 60
-522 86 -194 27 -322 56 -386 86 -114 54 -229 208 -259 349 -9 41 -19 144 -22
227 l-6 153 109 113 c302 313 553 701 673 1041 l38 109 64 21 c125 41 241 131
319 249 99 147 126 427 56 565 -47 91 -129 146 -212 141 -24 -2 -46 -1 -48 2
-3 3 -1 32 4 65 13 80 46 344 60 479 6 61 20 153 30 205 68 349 82 562 55 790
-38 318 -119 486 -339 705 -392 391 -911 649 -1450 721 -192 25 -380 13 -516
-34 -168 -58 -392 -206 -663 -440 -104 -89 -108 -92 -146 -86 -49 8 -163 -11
-254 -42 -167 -57 -352 -190 -468 -337 -71 -89 -178 -329 -234 -522 -56 -194
-82 -462 -66 -670 18 -230 76 -433 197 -684 35 -73 64 -136 64 -140 0 -3 -21
-14 -48 -23 -111 -40 -182 -171 -182 -336 0 -85 35 -238 71 -310 69 -141 236
-276 381 -306 23 -5 30 -17 58 -103 106 -321 371 -737 659 -1035 l94 -98 -6
-172 c-3 -95 -13 -207 -21 -248 -31 -148 -162 -315 -283 -360 -69 -26 -191
-51 -363 -75 -111 -16 -475 -75 -555 -90 -26 -5 -46 6 -165 96 -835 630 -1357
1537 -1481 2574 -18 147 -20 212 -16 480 5 367 23 522 98 831 105 437 322 911
586 1282 615 864 1585 1438 2623 1552 58 6 112 13 120 15 55 11 592 3 710 -10z
m-182 -2200 c203 -30 378 -113 515 -243 147 -140 231 -313 257 -533 29 -232
-34 -422 -214 -646 -108 -134 -227 -236 -441 -378 -158 -105 -165 -118 -165
-298 0 -107 -3 -134 -20 -166 -42 -83 -115 -116 -238 -109 -60 4 -81 10 -114
34 -76 54 -83 78 -86 333 -3 188 0 232 14 277 25 79 78 133 189 194 286 154
497 337 580 505 58 116 56 226 -5 352 -92 188 -361 281 -587 203 -89 -31 -174
-89 -262 -180 -107 -109 -159 -121 -291 -63 -72 31 -116 75 -136 135 -29 87 2
153 130 282 159 158 355 262 569 301 97 18 188 18 305 0z m-166 -2545 c78 -22
138 -102 138 -185 0 -60 -19 -103 -63 -142 -51 -44 -95 -56 -197 -51 -98 5
-138 23 -179 84 -70 102 -23 247 95 289 46 17 154 19 206 5z"/>
</g>
</svg>
