<?xml version="1.0" standalone="no"?>
<!DOCTYPE svg PUBLIC "-//W3C//DTD SVG 20010904//EN"
 "http://www.w3.org/TR/2001/REC-SVG-20010904/DTD/svg10.dtd">
<svg version="1.0" xmlns="http://www.w3.org/2000/svg"
 width="1280.000000pt" height="1280.000000pt" viewBox="0 0 1280.000000 1280.000000"
 preserveAspectRatio="xMidYMid meet">
<g transform="translate(0.000000,1280.000000) scale(0.100000,-0.100000)"
fill="#000000" stroke="none">
<path d="M6120 12410 c-1378 -68 -2680 -596 -3703 -1502 -1182 -1047 -1901
-2502 -2017 -4083 -13 -180 -13 -670 0 -850 86 -1167 495 -2261 1193 -3190
978 -1300 2452 -2156 4057 -2354 274 -34 441 -44 740 -44 300 0 488 11 760 44
1610 198 3094 1063 4071 2374 694 933 1093 2012 1179 3190 13 180 13 630 0
810 -78 1069 -410 2048 -993 2925 -1026 1544 -2715 2533 -4557 2669 -203 15
-545 20 -730 11z m580 -780 c1310 -75 2524 -628 3442 -1569 727 -744 1202
-1651 1402 -2676 61 -314 87 -612 87 -985 0 -290 -9 -447 -42 -700 -126 -970
-534 -1894 -1183 -2675 -131 -157 -478 -504 -635 -635 -687 -570 -1456 -944
-2304 -1119 -638 -132 -1307 -144 -1952 -35 -1493 254 -2818 1159 -3600 2460
-648 1079 -886 2329 -679 3574 210 1265 886 2415 1898 3224 1010 808 2272
1210 3566 1136z"/>
<path d="M6264 11513 l-52 -4 -7 -202 c-3 -111 -5 -249 -3 -307 l3 -105 193
-3 192 -2 1 62 c2 77 -2 552 -5 555 -4 5 -275 10 -322 6z"/>
<path d="M3910 10869 c-105 -59 -241 -142 -246 -151 -5 -8 276 -502 299 -525
9 -9 48 9 172 82 88 51 160 98 160 103 0 23 -301 522 -315 522 -8 0 -40 -14
-70 -31z"/>
<path d="M8652 10640 c-84 -143 -151 -264 -147 -269 3 -5 40 -28 83 -52 42
-23 113 -64 156 -91 65 -40 82 -47 92 -36 6 7 78 127 159 267 l147 254 -23 18
c-46 35 -283 169 -299 169 -9 0 -74 -100 -168 -260z"/>
<path d="M2027 9053 c-69 -111 -162 -282 -155 -288 26 -23 533 -304 539 -298
13 14 179 309 179 319 0 9 -499 296 -526 302 -7 2 -24 -14 -37 -35z"/>
<path d="M10635 9037 c-50 -29 -166 -95 -258 -147 -92 -52 -167 -100 -167
-107 0 -7 17 -41 38 -75 21 -35 60 -102 86 -150 26 -48 51 -90 56 -93 7 -4
408 220 503 281 l37 24 -26 51 c-52 104 -155 269 -167 268 -7 0 -53 -24 -102
-52z"/>
<path d="M6259 6871 c-177 -57 -301 -192 -342 -374 -8 -38 -17 -70 -19 -72 -2
-2 -570 -213 -1263 -468 -2405 -887 -2650 -978 -2659 -988 -5 -5 -7 -11 -4
-14 4 -5 599 162 3008 843 525 149 971 275 990 279 33 9 39 6 97 -42 83 -68
159 -104 255 -121 191 -33 386 56 499 229 21 32 39 63 42 70 2 8 407 35 1425
93 782 44 1425 84 1429 87 3 4 3 10 0 14 -4 3 -647 43 -1429 88 -783 46 -1424
83 -1425 84 -2 0 -15 24 -29 53 -34 66 -134 168 -199 201 -117 59 -264 74
-376 38z"/>
<path d="M1295 6580 c-4 -6 -6 -87 -6 -180 0 -93 2 -174 6 -180 4 -6 116 -10
311 -10 l304 0 0 190 0 190 -304 0 c-195 0 -307 -4 -311 -10z"/>
<path d="M10888 6583 c-3 -5 -4 -89 -4 -188 l1 -180 310 0 310 0 0 185 0 185
-307 3 c-169 1 -308 -1 -310 -5z"/>
<path d="M2140 4190 c-140 -82 -259 -150 -264 -152 -15 -7 154 -315 179 -324
15 -6 535 287 535 301 0 15 -176 319 -186 321 -5 1 -124 -65 -264 -146z"/>
<path d="M10383 4327 c-6 -7 -29 -48 -53 -92 -24 -44 -61 -108 -82 -143 -21
-34 -38 -68 -38 -75 0 -11 509 -307 529 -307 10 0 80 112 150 241 32 60 39 79
29 87 -15 12 -436 255 -490 283 -28 14 -38 16 -45 6z"/>
<path d="M3952 2592 c-46 -66 -293 -503 -288 -510 12 -20 295 -182 317 -182
13 0 314 501 314 522 0 7 -199 130 -307 189 -13 7 -21 3 -36 -19z"/>
<path d="M8790 2601 c-14 -10 -81 -51 -150 -90 -68 -39 -128 -75 -133 -80 -12
-12 293 -531 311 -531 22 0 322 173 322 186 0 5 -251 439 -287 497 -27 42 -29
43 -63 18z"/>
<path d="M6207 1903 c-9 -8 -9 -265 0 -460 l6 -150 94 -7 c51 -4 135 -4 187 0
l94 7 4 240 c2 132 2 271 0 309 l-4 68 -187 0 c-103 0 -191 -3 -194 -7z"/>
</g>
</svg>
