<?xml version="1.0" encoding="iso-8859-1"?>
<!-- Uploaded to: SVG Repo, www.svgrepo.com, Generator: SVG Repo Mixer Tools -->
<svg fill="#000000" height="800px" width="800px" version="1.1" id="Layer_1" xmlns="http://www.w3.org/2000/svg" xmlns:xlink="http://www.w3.org/1999/xlink" 
	 viewBox="0 0 318.188 318.188" xml:space="preserve">
<g>
	<g>
		<g>
			<path d="M107.628,144.384c10.418,0,10.418,5.176,10.418,7.957c0,6.702,0,13.033,2.307,18.442
				c2.151,5.045,7.166,11.058,18.84,11.058c4.142,0,7.501-3.358,7.501-7.5c0-4.142-3.358-7.5-7.501-7.5c-5.088,0-6.147,0-6.147-14.5
				c0-6.324-1.943-11.578-5.489-15.457c3.546-3.878,5.489-9.133,5.489-15.456c0-14.5,1.059-14.5,6.147-14.5
				c4.142,0,7.501-3.358,7.501-7.5c0-4.142-3.358-7.5-7.501-7.5c-11.674,0-16.688,6.013-18.84,11.058
				c-2.307,5.409-2.307,11.74-2.307,18.442c0,2.781,0,7.956-10.418,7.956c-4.142,0-7.5,3.358-7.5,7.5
				C100.128,141.026,103.486,144.384,107.628,144.384z"/>
			<path d="M124.299,243.335c2.035,0,3.938,0.285,5.71,0.854c1.772,0.569,3.544,1.269,5.316,2.1l3.971-10.206
				c-4.726-2.253-9.681-3.38-14.866-3.38c-4.748,0-8.877,1.012-12.389,3.036c-3.511,2.024-6.203,4.917-8.073,8.68
				c-1.871,3.763-2.806,8.128-2.806,13.094c0,7.942,1.931,14.013,5.793,18.214c3.861,4.201,9.413,6.301,16.655,6.301
				c5.054,0,9.582-0.886,13.586-2.658v-10.961c-2.013,0.831-4.015,1.542-6.006,2.133c-1.991,0.59-4.048,0.886-6.17,0.886
				c-7.023,0-10.535-4.616-10.535-13.849c0-4.441,0.864-7.925,2.593-10.452C118.808,244.599,121.214,243.335,124.299,243.335z"/>
			<path d="M283.149,52.722L232.625,2.197C231.218,0.79,229.311,0,227.321,0H40.342c-4.142,0-7.5,3.358-7.5,7.5v303.188
				c0,4.142,3.358,7.5,7.5,7.5h237.504c4.143,0,7.5-3.358,7.5-7.5V58.025C285.346,56.036,284.556,54.129,283.149,52.722z
				 M234.821,25.606l24.918,24.919h-24.918V25.606z M47.842,15h171.98v10.263H47.842V15z M270.346,303.188H47.842V40.263h171.98
				v17.763c0,4.142,3.357,7.5,7.5,7.5h43.024V303.188z"/>
			<path d="M210.56,129.384c-10.418,0-10.418-5.176-10.418-7.956c0-6.702,0-13.032-2.307-18.442
				c-2.151-5.045-7.166-11.058-18.84-11.058c-4.143,0-7.5,3.358-7.5,7.5c0,4.142,3.357,7.5,7.5,7.5c5.088,0,6.146,0,6.146,14.5
				c0,6.324,1.942,11.578,5.489,15.456c-3.547,3.879-5.489,9.133-5.489,15.457c0,14.5-1.059,14.5-6.146,14.5
				c-4.143,0-7.5,3.358-7.5,7.5c0,4.142,3.357,7.5,7.5,7.5c11.674,0,16.688-6.013,18.84-11.058c2.307-5.41,2.307-11.74,2.307-18.442
				c0-2.781,0-7.957,10.418-7.957c4.143,0,7.5-3.358,7.5-7.5C218.06,132.742,214.702,129.384,210.56,129.384z"/>
			<path d="M166.898,252.754c-4.311-1.969-6.953-3.326-7.926-4.07c-0.975-0.743-1.461-1.586-1.461-2.527
				c0-0.874,0.383-1.607,1.148-2.198c0.766-0.591,1.99-0.886,3.676-0.886c3.26,0,7.133,1.029,11.617,3.085l3.971-10.009
				c-5.162-2.297-10.228-3.446-15.193-3.446c-5.623,0-10.043,1.236-13.26,3.708c-3.215,2.473-4.823,5.918-4.823,10.337
				c0,2.363,0.378,4.409,1.132,6.137c0.755,1.729,1.914,3.26,3.478,4.595c1.564,1.335,3.91,2.713,7.039,4.135
				c3.457,1.554,5.584,2.582,6.385,3.085c0.797,0.503,1.377,1.001,1.738,1.493s0.541,1.067,0.541,1.723
				c0,1.05-0.447,1.909-1.346,2.576c-0.896,0.668-2.309,1.001-4.232,1.001c-2.232,0-4.682-0.355-7.352-1.067
				c-2.67-0.71-5.24-1.701-7.712-2.97v11.552c2.341,1.116,4.595,1.898,6.761,2.346c2.166,0.448,4.846,0.673,8.039,0.673
				c3.83,0,7.166-0.64,10.01-1.92c2.844-1.28,5.021-3.073,6.531-5.382c1.51-2.308,2.264-4.95,2.264-7.925
				c0-3.238-0.803-5.924-2.412-8.057C173.904,256.61,171.032,254.614,166.898,252.754z"/>
			<path d="M205.689,252.754c-4.311-1.969-6.952-3.326-7.926-4.07c-0.974-0.743-1.46-1.586-1.46-2.527
				c-0.001-0.874,0.381-1.607,1.147-2.198s1.99-0.886,3.676-0.886c3.26,0,7.132,1.029,11.617,3.085l3.971-10.009
				c-5.163-2.297-10.229-3.446-15.194-3.446c-5.623,0-10.042,1.236-13.259,3.708c-3.216,2.473-4.823,5.918-4.823,10.337
				c0,2.363,0.377,4.409,1.132,6.137c0.755,1.729,1.914,3.26,3.479,4.595c1.564,1.335,3.91,2.713,7.039,4.135
				c3.457,1.554,5.584,2.582,6.384,3.085c0.798,0.503,1.378,1.001,1.739,1.493c0.36,0.492,0.541,1.067,0.541,1.723
				c0,1.05-0.448,1.909-1.346,2.576c-0.897,0.668-2.309,1.001-4.233,1.001c-2.231,0-4.682-0.355-7.351-1.067
				c-2.67-0.71-5.24-1.701-7.713-2.97v11.552c2.341,1.116,4.595,1.898,6.761,2.346c2.166,0.448,4.846,0.673,8.04,0.673
				c3.829,0,7.165-0.64,10.01-1.92c2.844-1.28,5.021-3.073,6.53-5.382c1.51-2.308,2.265-4.95,2.265-7.925
				c0-3.238-0.804-5.924-2.412-8.057C212.696,256.61,209.824,254.614,205.689,252.754z"/>
		</g>
	</g>
</g>
</svg>