<?xml version="1.0" standalone="no"?>
<!DOCTYPE svg PUBLIC "-//W3C//DTD SVG 20010904//EN"
 "http://www.w3.org/TR/2001/REC-SVG-20010904/DTD/svg10.dtd">
<svg version="1.0" xmlns="http://www.w3.org/2000/svg"
 width="1280.000000pt" height="1280.000000pt" viewBox="0 0 1280.000000 1280.000000"
 preserveAspectRatio="xMidYMid meet">
<g transform="translate(0.000000,1280.000000) scale(0.100000,-0.100000)"
fill="#000000" stroke="none">
<path d="M6990 12354 c-201 -57 -770 -220 -1265 -361 -495 -140 -916 -264
-935 -273 -46 -24 -74 -55 -99 -110 -25 -54 -26 -100 -6 -290 28 -259 35 -333
46 -435 16 -161 26 -200 69 -254 l40 -50 -25 -43 c-45 -78 -48 -106 -30 -277
44 -413 48 -429 122 -490 l37 -31 -26 -27 c-40 -42 -68 -111 -68 -169 0 -45
15 -166 50 -397 11 -74 36 -131 69 -161 27 -24 26 -34 -3 -87 -35 -64 -39 -94
-26 -226 16 -167 25 -260 54 -573 14 -151 31 -322 36 -380 14 -135 26 -264 45
-475 27 -292 35 -376 60 -625 3 -30 12 -129 20 -220 20 -225 34 -368 45 -475
12 -115 27 -279 40 -425 12 -136 25 -275 40 -420 5 -58 21 -226 35 -375 45
-481 60 -637 71 -740 8 -74 31 -121 82 -167 44 -40 98 -61 157 -61 36 0 195
16 420 43 44 5 148 17 230 25 136 14 246 26 363 41 23 3 66 18 95 33 36 19 75
30 122 34 252 23 299 34 353 81 50 44 70 96 82 222 6 60 15 156 21 214 30 314
41 425 50 515 5 55 14 145 19 200 18 191 40 421 50 523 5 56 15 148 20 205 6
56 15 147 20 202 18 191 40 421 50 523 25 250 31 316 45 467 8 88 19 206 25
263 34 343 55 563 69 717 6 61 15 157 21 215 6 58 15 148 20 200 5 52 14 147
20 210 5 63 14 158 20 210 5 52 14 145 20 205 6 61 15 153 20 205 5 52 17 169
25 260 8 91 20 208 25 260 9 84 40 409 70 725 6 61 15 153 20 205 9 87 22 222
50 525 6 61 15 153 21 206 13 111 4 155 -40 216 -17 23 -49 50 -76 63 -45 22
-93 24 -199 8 -15 -2 -27 9 -45 41 -24 44 -24 46 -13 150 22 199 26 305 12
346 -16 50 -84 123 -135 146 -70 32 -117 24 -505 -87z"/>
<path d="M6365 3484 c-104 -16 -225 -51 -320 -94 -37 -17 -81 -30 -98 -30 -45
0 -186 -26 -273 -50 -438 -120 -825 -517 -950 -974 -81 -297 -70 -644 29 -926
124 -356 399 -668 732 -831 203 -99 382 -139 625 -139 289 0 524 72 771 236
68 45 270 234 315 295 10 14 53 48 94 76 176 120 286 233 391 406 148 242 219
544 191 812 -7 63 -19 145 -28 183 -95 419 -357 751 -739 933 -218 105 -487
142 -740 103z"/>
</g>
</svg>
